<svg width="130" height="51" viewBox="0 0 130 51" fill="none" xmlns="http://www.w3.org/2000/svg">
<path d="M-3.28121e-05 0.210646L0.105208 25.1742L0.193586 46.1377C0.202899 48.3469 2.00129 50.1301 4.21041 50.1208L25.174 50.0325L37.6557 49.9798L46.1375 49.9441C48.3467 49.9348 50.1299 48.1364 50.1206 45.9272L49.927 0.000164321L26.9606 0.096986L27.0574 19.9943L27.0574 32.4528L25.0603 32.4528L22.9664 32.4528L23.0632 20.0112L22.9664 0.113825L-3.28121e-05 0.210646Z" fill="black"/>
<path d="M54.9252 0.0881661C54.3473 0.0906022 53.8809 0.561007 53.8833 1.13884L53.9844 25.1148L60.8534 50.0365L77.959 50.0364V32.415H75.8448L75.8385 0L54.9252 0.0881661Z" fill="black"/>
<path d="M100.79 0.0881661C101.368 0.0906022 101.834 0.561007 101.832 1.13884L101.731 25.1148L94.8616 50.0365L77.756 50.0364V32.415H79.8702L79.8765 0L100.79 0.0881661Z" fill="black"/>
<path fill-rule="evenodd" clip-rule="evenodd" d="M115.533 4.18506C115.259 4.18506 115.038 4.47393 115.038 4.83026V6.76588C115.038 7.12221 114.816 7.41108 114.542 7.41108H113.155C112.881 7.41108 112.659 7.69995 112.659 8.05629V13.2179C112.659 13.5743 112.438 13.8631 112.164 13.8631H110.777C110.503 13.8631 110.281 14.152 110.281 14.5083V18.057C110.281 18.4133 110.06 18.7022 109.786 18.7022H108.399C108.125 18.7022 107.903 18.991 107.903 19.3474V22.896C107.903 23.2523 107.681 23.5412 107.408 23.5412H106.169C105.896 23.5412 105.674 23.8301 105.674 24.1864V26.122C105.674 26.4783 105.896 26.7672 106.169 26.7672H112.61C112.884 26.7672 113.105 27.0561 113.105 27.4124V30.961C113.105 31.3174 112.884 31.6062 112.61 31.6062H111.223C110.949 31.6062 110.727 31.8951 110.727 32.2515V35.8001C110.727 36.1564 110.505 36.4453 110.232 36.4453H108.845C108.571 36.4453 108.349 36.7342 108.349 37.0905V42.2521C108.349 42.6085 108.571 42.8973 108.845 42.8973H112.808C113.082 42.8973 113.304 42.6085 113.304 42.2521V39.6713H115.285C115.559 39.6713 115.781 39.3824 115.781 39.0261V37.0905C115.781 36.7342 116.003 36.4453 116.276 36.4453H117.663C117.937 36.4453 118.159 36.1564 118.159 35.8001V33.8645C118.159 33.5081 118.381 33.2193 118.654 33.2193H120.042C120.315 33.2193 120.537 32.9304 120.537 32.5741V30.6384C120.537 30.2821 120.759 29.9932 121.032 29.9932H122.42C122.693 29.9932 122.915 29.7044 122.915 29.348V27.4124C122.915 27.0561 123.137 26.7672 123.41 26.7672H124.798C125.071 26.7672 125.293 26.4783 125.293 26.122V24.1864C125.293 23.8301 125.515 23.5412 125.789 23.5412H127.176C127.449 23.5412 127.671 23.2523 127.671 22.896V17.7344C127.671 17.378 127.449 17.0891 127.176 17.0891H125.739C125.465 17.0891 125.244 16.8003 125.244 16.4439V14.5083C125.244 14.152 125.465 13.8631 125.739 13.8631H127.126C127.4 13.8631 127.622 13.5743 127.622 13.2179V11.2823C127.622 10.926 127.844 10.6371 128.117 10.6371H129.504C129.778 10.6371 130 10.3482 130 9.9919V4.83026C130 4.47393 129.778 4.18506 129.504 4.18506H115.533Z" fill="#DE5FE9"/>
</svg>
